<?xml version="1.0" standalone="no"?>
<!DOCTYPE svg PUBLIC "-//W3C//DTD SVG 20010904//EN"
 "http://www.w3.org/TR/2001/REC-SVG-20010904/DTD/svg10.dtd">
<svg version="1.0" xmlns="http://www.w3.org/2000/svg"
 width="558.000000pt" height="260.000000pt" viewBox="0 0 558.000000 260.000000"
 preserveAspectRatio="xMidYMid meet">

<g transform="translate(0.000000,260.000000) scale(0.100000,-0.100000)"
fill="#000000" stroke="none">
<path d="M3020 2105 c-7 -9 -11 -17 -9 -20 3 -2 10 5 17 15 14 24 10 26 -8 5z"/>
<path d="M3131 2103 c7 -12 15 -20 18 -17 3 2 -3 12 -13 22 -17 16 -18 16 -5
-5z"/>
<path d="M3002 2050 c0 -14 2 -19 5 -12 2 6 2 18 0 25 -3 6 -5 1 -5 -13z"/>
<path d="M3131 2054 c0 -11 3 -14 6 -6 3 7 2 16 -1 19 -3 4 -6 -2 -5 -13z"/>
<path d="M3152 2050 c0 -14 2 -19 5 -12 2 6 2 18 0 25 -3 6 -5 1 -5 -13z"/>
<path d="M3070 2039 c0 -11 5 -17 10 -14 6 3 10 13 10 21 0 8 -4 14 -10 14 -5
0 -10 -9 -10 -21z"/>
<path d="M3020 2044 c0 -13 18 -39 24 -34 2 3 -2 14 -10 24 -8 11 -14 16 -14
10z"/>
<path d="M4779 2030 c-59 -10 -154 -33 -210 -51 -88 -29 -99 -34 -70 -37 18
-2 79 5 135 15 78 14 152 18 331 18 218 0 233 -1 293 -24 89 -34 110 -71 77
-135 -18 -33 -18 -36 -6 -36 6 0 21 18 34 41 41 69 12 135 -79 179 -23 12 -55
23 -71 26 -15 2 -50 9 -76 14 -72 15 -239 10 -358 -10z"/>
<path d="M3130 2005 c-7 -9 -10 -18 -7 -21 3 -3 10 4 17 15 13 25 8 27 -10 6z"/>
<path d="M3063 1903 c-10 -3 -13 -41 -13 -139 l0 -134 30 0 30 0 0 134 c0 113
-2 135 -16 140 -9 3 -16 6 -17 5 -1 0 -8 -3 -14 -6z"/>
<path d="M2200 1791 c0 -97 2 -113 20 -131 26 -26 60 -34 122 -28 79 8 88 25
88 160 l0 109 -27 -3 -28 -3 -3 -99 c-1 -55 -8 -106 -14 -113 -13 -17 -59 -17
-81 0 -13 9 -17 33 -19 112 l-3 100 -27 3 -28 3 0 -110z"/>
<path d="M2553 1823 c-17 -43 -43 -104 -57 -135 l-26 -58 31 0 c25 0 33 6 42
30 11 29 14 30 75 30 61 0 63 -1 73 -30 9 -25 16 -30 44 -30 l34 0 -50 113
c-28 61 -55 122 -60 135 -6 16 -17 22 -41 22 -32 0 -34 -3 -65 -77z m82 -30
c21 -52 19 -58 -18 -54 -17 1 -33 4 -34 5 -4 3 29 86 34 86 2 0 10 -17 18 -37z"/>
<path d="M2760 1853 c81 -211 85 -218 121 -218 l33 0 52 130 c49 121 51 130
32 133 -35 6 -45 -5 -78 -97 -18 -50 -36 -88 -40 -86 -5 3 -23 46 -41 95 -31
88 -32 90 -64 90 l-33 0 18 -47z"/>
<path d="M3219 1883 c-15 -9 -34 -29 -43 -44 -20 -34 -21 -111 -1 -148 31 -61
151 -82 216 -38 79 53 72 189 -12 233 -38 19 -127 18 -160 -3z m137 -46 c23
-20 27 -32 27 -72 0 -40 -4 -52 -27 -72 -31 -27 -56 -29 -95 -8 -33 16 -41 33
-41 81 0 44 15 73 43 84 37 15 65 11 93 -13z"/>
<path d="M4620 1812 c-36 -10 -81 -27 -100 -38 -34 -20 -35 -22 -33 -77 l2
-57 -37 -9 c-371 -99 -411 -104 -458 -60 -43 41 -31 94 39 167 47 48 44 53
-12 18 -99 -63 -123 -154 -59 -223 l20 -22 -38 -10 c-22 -5 -131 -33 -244 -61
-113 -28 -213 -53 -222 -56 -15 -5 -18 1 -18 36 0 33 -6 48 -29 71 l-29 29
-567 0 c-629 0 -618 1 -649 -65 -9 -19 -16 -59 -16 -95 l0 -63 -37 6 c-21 4
-81 11 -133 17 -52 6 -145 18 -206 26 -60 8 -127 15 -148 16 l-37 1 30 19 c16
11 39 39 51 63 18 38 20 50 11 78 -13 39 -50 76 -104 106 -43 24 -72 28 -42 6
11 -9 39 -34 62 -57 69 -66 54 -123 -45 -172 -18 -9 -30 -21 -28 -25 6 -8 3
-8 -104 8 -36 6 -114 15 -175 21 -153 15 -145 11 -145 81 0 56 -2 60 -32 79
-40 24 -101 35 -195 34 -78 -1 -128 -16 -138 -42 -3 -10 -9 -72 -12 -140 -5
-106 -4 -125 11 -141 26 -29 101 -45 207 -46 123 0 149 14 149 80 0 51 7 54
93 32 60 -16 51 -27 -24 -27 -56 0 -57 -1 -61 -30 l-5 -31 91 1 c106 2 208 18
200 32 -4 6 1 8 12 4 11 -3 42 -10 69 -15 28 -6 100 -22 160 -36 61 -14 149
-35 197 -45 109 -25 264 -60 302 -69 28 -6 28 -7 28 -81 l0 -75 -43 -2 c-55
-3 -466 -37 -960 -80 -62 -5 -67 -4 -73 15 -5 14 -21 25 -49 33 -46 12 -152 8
-166 -7 -5 -5 -13 -46 -16 -90 -7 -81 -7 -82 20 -100 32 -21 164 -26 188 -6 8
7 17 30 21 51 l6 39 132 6 c73 3 316 8 541 12 l407 6 0 -74 c0 -67 3 -77 29
-108 l29 -35 568 4 c442 2 576 6 601 16 49 21 63 59 63 175 0 73 3 100 13 100
6 0 59 7 117 16 58 8 137 19 175 24 39 5 171 23 295 40 476 65 524 71 537 66
7 -3 13 -16 13 -30 0 -55 55 -70 155 -41 75 22 79 30 65 117 -16 99 -29 112
-102 104 -73 -7 -132 -34 -136 -62 -3 -23 25 -20 -562 -64 -146 -11 -326 -24
-399 -30 -74 -5 -143 -10 -153 -10 -15 0 -18 9 -18 54 0 50 2 55 28 64 15 5
178 65 362 132 l335 122 160 4 c318 9 351 11 405 27 30 9 69 26 85 37 42 28
54 35 105 59 45 22 45 22 10 16 -19 -2 -44 -6 -54 -7 -17 -3 -22 11 -41 116
-16 87 -27 123 -40 133 -26 18 -125 16 -205 -5z m182 -24 c8 -8 20 -45 27 -88
7 -41 15 -84 17 -95 5 -19 -1 -20 -73 -21 -68 -2 -144 -19 -214 -48 -13 -6
-18 9 -32 87 -9 51 -17 98 -17 104 0 5 18 18 40 28 88 40 221 57 252 33z
m-3739 -238 c25 -12 27 -18 27 -70 0 -32 -3 -78 -6 -104 -6 -43 -9 -47 -28
-41 -64 19 -169 28 -226 19 l-61 -10 7 100 c5 76 10 104 23 114 21 18 224 11
264 -8z m3787 -6 c8 -8 -22 -23 -89 -44 -64 -20 -201 -28 -201 -11 0 14 96 51
158 60 53 9 121 5 132 -5z m-332 -35 c3 -25 1 -26 -61 -33 -36 -3 -72 -3 -81
0 -14 5 -12 10 13 25 34 21 89 38 111 36 8 -1 16 -14 18 -28z m-1108 -41 c12
-14 20 -35 20 -59 l0 -37 -147 -36 c-172 -43 -222 -64 -246 -105 -36 -61 -9
-159 50 -182 23 -8 51 -1 181 46 85 31 157 53 160 50 3 -3 8 -57 10 -120 l4
-114 -30 -31 -30 -30 -374 -3 c-777 -5 -757 -5 -779 22 -16 20 -19 40 -19 136
l0 112 163 -38 c89 -21 172 -38 184 -39 50 0 80 91 51 154 -21 47 -53 58 -232
80 l-171 22 0 71 c0 77 16 108 59 116 11 2 269 5 573 6 l552 1 21 -22z m-2379
-160 c19 -6 38 -14 43 -19 11 -10 -59 -29 -110 -29 -78 0 -206 31 -190 47 23
23 189 24 257 1z m3755 -116 c6 -4 14 -27 18 -52 l7 -46 -63 -11 c-35 -6 -71
-14 -80 -18 -13 -5 -18 -2 -18 9 0 9 6 16 14 16 7 0 19 7 26 15 17 21 -4 45
-38 45 -39 0 -13 20 45 36 57 15 74 16 89 6z m14 -141 c0 -9 -84 -31 -117 -31
-29 0 -1 19 42 29 54 12 75 13 75 2z m-3753 -142 l28 -12 -33 -10 c-25 -8 -32
-15 -30 -31 2 -13 12 -22 26 -24 12 -2 22 -9 22 -16 0 -9 -22 -12 -80 -12
l-80 1 0 52 c0 32 5 53 13 56 23 10 106 7 134 -4z m-22 -139 c14 -6 -1 -9 -48
-9 -43 -1 -66 3 -62 9 7 12 82 12 110 0z"/>
<path d="M590 1780 c-158 -17 -326 -96 -356 -168 -21 -51 -18 -68 22 -112 42
-46 68 -55 31 -10 -14 16 -29 39 -32 50 -8 27 16 65 58 90 40 25 168 66 227
74 25 3 74 11 110 17 36 6 159 14 275 17 l210 7 -74 18 c-85 21 -352 30 -471
17z"/>
<path d="M650 1310 c14 -4 39 -8 55 -8 l30 0 -30 8 c-16 4 -41 8 -55 8 l-25 0
25 -8z"/>
</g>
</svg>
