<?xml version="1.0" standalone="no"?>
<!DOCTYPE svg PUBLIC "-//W3C//DTD SVG 20010904//EN"
 "http://www.w3.org/TR/2001/REC-SVG-20010904/DTD/svg10.dtd">
<svg version="1.0" xmlns="http://www.w3.org/2000/svg"
 width="1048.000000pt" height="1356.000000pt" viewBox="0 0 1048.000000 1356.000000"
 preserveAspectRatio="xMidYMid meet">
<metadata>
Created by potrace 1.16, written by Peter Selinger 2001-2019
</metadata>
<g transform="translate(0.000000,1356.000000) scale(0.100000,-0.100000)"
fill="#000000" stroke="none">
<path d="M0 6780 l0 -6780 5240 0 5240 0 0 6780 0 6780 -5240 0 -5240 0 0
-6780z m3830 -119 c70 -21 142 -74 180 -131 37 -55 64 -121 313 -780 151 -398
401 -1056 412 -1082 7 -17 -6 -18 -187 -18 l-195 0 -243 643 c-133 353 -271
719 -307 812 -36 95 -75 181 -88 194 -29 30 -91 32 -128 5 -28 -21 -15 12
-437 -1061 l-234 -593 -189 0 -189 0 6 26 c8 31 700 1785 717 1816 21 39 103
119 141 139 76 39 137 49 268 45 69 -2 141 -9 160 -15z m-2810 -741 c5 -718 5
-725 26 -765 72 -134 158 -159 529 -154 l232 4 69 35 c47 24 77 47 96 75 57
83 58 95 58 847 l0 688 170 0 171 0 -3 -762 c-4 -842 -1 -807 -69 -945 -66
-136 -196 -231 -369 -270 -111 -25 -720 -25 -830 0 -217 49 -348 169 -411 377
-23 75 -23 77 -27 838 l-3 762 178 -2 178 -3 5 -725z m4097 408 c287 -764 466
-1236 484 -1279 12 -28 30 -51 45 -58 34 -15 85 -14 110 3 30 21 -9 -73 568
1386 l105 265 190 3 c145 2 191 -1 191 -10 0 -11 -129 -337 -582 -1478 -71
-179 -140 -343 -153 -366 -67 -115 -195 -174 -378 -174 -196 1 -324 65 -391
198 -13 26 -123 310 -244 632 -121 322 -259 689 -307 815 -48 127 -100 265
-116 308 l-28 77 192 0 193 0 121 -322z m4128 298 c182 -40 315 -114 428 -236
149 -161 227 -417 227 -742 -1 -542 -203 -859 -616 -963 -166 -41 -625 -45
-810 -6 -171 35 -289 97 -399 206 -171 171 -245 402 -245 762 0 468 139 757
437 907 69 34 209 74 303 85 118 15 591 6 675 -13z"/>
<path d="M8615 6293 c-127 -19 -207 -55 -281 -124 -66 -63 -110 -153 -136
-277 -28 -135 -22 -428 12 -542 42 -146 112 -236 223 -289 105 -49 157 -56
437 -56 211 0 266 3 319 18 173 47 278 155 325 332 30 112 41 282 28 413 -31
302 -117 432 -332 504 -59 19 -90 22 -315 24 -137 1 -263 0 -280 -3z"/>
</g>
</svg>
